<svg display="none" xmlns="http://www.w3.org/2000/svg">


    <symbol id="step_1" viewBox="0 0 74 74">
        <g>
            <path class="st1" d="M41.8,37.5c3.5,0,6.4-2.8,6.4-6.3c0-3.4-2.9-6.2-6.4-6.2s-6.4,2.8-6.4,6.2C35.4,34.7,38.3,37.5,41.8,37.5z
		 M27.5,34.4v-4.7h-3.2v4.7h-4.8v3.1h4.8v4.7h3.2v-4.7h4.8v-3.1H27.5z M41.8,40.6c-4.3,0-12.7,2-12.7,6.2V50h25.5v-3.1
		C54.5,42.7,46.1,40.6,41.8,40.6z"/>
        </g>
    </symbol>
    <symbol id="step_2" viewBox="0 0 74 74">
        <g>
            <path class="st1" d="M47.1,25.5L32.6,39.8l-5.6-5.5l-4.4,4.4l10.1,9.9l18.9-18.6L47.1,25.5z"/>
        </g>
    </symbol>
    <symbol id="step_3" viewBox="0 0 74 74">
        <g>
            <path class="st1" d="M54.9,35c-0.1-0.5-0.6-0.9-1.2-0.9c-1.6,0-3.1-1-3.7-2.5c-0.6-1.5-0.2-3.3,1-4.5c0.4-0.4,0.4-0.9,0.1-1.4
		c-0.8-1.1-1.8-2-2.9-2.9c-0.4-0.3-1-0.3-1.4,0.1c-1.1,1.2-3,1.6-4.5,1c-1.5-0.7-2.5-2.2-2.4-3.9c0-0.5-0.4-1-0.9-1.1
		c-1.3-0.2-2.7-0.2-4,0c-0.5,0.1-0.9,0.5-0.9,1c0.1,1.7-0.9,3.2-2.5,3.8c-1.5,0.6-3.4,0.2-4.5-1c-0.4-0.4-0.9-0.4-1.4-0.1
		c-1.1,0.8-2.1,1.8-2.9,2.9c-0.3,0.4-0.3,1,0.1,1.4c1.3,1.1,1.7,2.9,1,4.5c-0.6,1.5-2.2,2.4-3.9,2.4c-0.6,0-1,0.4-1,0.9
		c-0.2,1.4-0.2,2.7,0,4.1c0.1,0.5,0.7,0.9,1.2,0.9c1.6,0,3.1,0.9,3.7,2.5c0.6,1.5,0.2,3.3-1,4.5c-0.4,0.4-0.4,0.9-0.1,1.4
		c0.8,1.1,1.8,2,2.8,2.9c0.4,0.3,1,0.3,1.4-0.1c1.1-1.2,3-1.6,4.5-1c1.6,0.6,2.5,2.2,2.4,3.9c0,0.5,0.4,1,0.9,1.1
		C35.6,55,36.3,55,37,55c0.7,0,1.3,0,2-0.1c0.5-0.1,0.9-0.5,0.9-1c-0.1-1.7,0.9-3.2,2.5-3.8c1.5-0.6,3.4-0.2,4.5,1
		c0.4,0.4,0.9,0.4,1.4,0.1c1.1-0.8,2.1-1.8,2.9-2.9c0.3-0.4,0.3-1-0.1-1.4c-1.3-1.1-1.7-2.9-1-4.5C50.5,41,52,40,53.6,40l0.2,0
		c0.5,0,1-0.4,1.1-0.9C55,37.7,55,36.4,54.9,35z M37,47.4c-5.7,0-10.4-4.6-10.4-10.4S31.3,26.6,37,26.6S47.4,31.3,47.4,37
		c0,1.9-0.5,3.8-1.5,5.3l-4.5-4.5c0.3-0.8,0.5-1.6,0.5-2.5c0-1.7-0.7-3.3-1.9-4.5c-1.2-1.2-2.8-1.9-4.5-1.9c-0.6,0-1.1,0.1-1.7,0.2
		c-0.2,0.1-0.4,0.3-0.5,0.5c-0.1,0.2,0,0.5,0.2,0.7c0,0,2.2,2.3,3,3c0.1,0.1,0.1,0.3,0.1,0.3l0,0c-0.1,0.8-0.2,1.8-0.3,2.2
		c0,0,0,0,0,0c0,0,0,0,0,0.1c-0.4,0.1-1.4,0.3-2.2,0.3l0,0l0,0c0,0,0,0,0,0c-0.1,0-0.2,0-0.3-0.1c-0.8-0.8-2.9-2.9-2.9-2.9
		c-0.2-0.2-0.4-0.2-0.5-0.2c-0.3,0-0.6,0.2-0.7,0.5c-0.6,2.2,0,4.6,1.6,6.2c1.2,1.2,2.8,1.9,4.5,1.9c0.9,0,1.7-0.2,2.5-0.5l4.6,4.6
		C41,46.8,39.1,47.4,37,47.4z"/>
        </g>
    </symbol>
    <symbol id="step_4" viewBox="0 0 74 74">
        <g>
            <path class="st1" d="M57,26.3l-0.3,2.5c-0.1,0.8-0.2,1.6-0.4,2.4l-0.1,0.5c-0.4,2.3-0.7,4.2-1.1,5.9c-0.4,1.9-0.9,4-1.5,6.1
		c-0.4,1.2-0.7,2.2-1.1,3.1c-0.2,0.6-0.5,1.1-0.7,1.6c-0.3,0.5-0.6,1-1.1,1.6c-0.2,0.3-0.5,0.5-0.8,0.7c-0.2,0.2-0.6,0.3-1.1,0.4
		c-0.4,0.1-0.8,0-1.1-0.1c-0.3-0.1-0.6-0.3-0.9-0.5c-0.6-0.5-1-1-1.3-1.4c-0.4-0.5-0.7-1.1-0.9-1.5c-0.6-1.1-1-2.2-1.4-3
		c-0.4-1-0.8-2.1-1.2-3c-0.2-0.6-0.4-1.2-0.6-1.8c-0.5-1.4-1-2.8-1.5-4.1c-0.4-1.1-0.8-1.9-1.2-2.6c0-0.1-0.1-0.2-0.2-0.3
		c0,0,0-0.1-0.1-0.1c0,0,0-0.1-0.1-0.1c-0.9-1.3-2-1.2-2.8,0.9c-0.2,0.4-0.3,0.8-0.5,1.3L34.5,36c-0.4,1.1-0.7,2.1-1.1,3
		c-0.5,1.2-0.9,2-1.4,2.8c-0.5,0.7-1.1,1.7-2,2.4c-0.5,0.4-0.9,0.6-1.4,0.8c-0.5,0.2-1,0.2-1.6,0.1c-0.5-0.1-0.9-0.3-1.4-0.5
		c-0.4-0.2-0.8-0.5-1.1-0.9c-0.6-0.6-1.2-1.3-1.7-2.2c-0.5-0.7-0.9-1.5-1.3-2.3c-0.8-1.7-1.5-3.4-1.9-4.6c-1.1-3.1-1.9-5.9-2.4-8
		c0-0.1,0-0.2-0.1-0.2c0-0.1,0-0.2,0.1-0.3c0.1-0.1,0.2-0.1,0.3-0.1c0,0,0.1,0,0.1,0c0.1,0,0.2,0.1,0.2,0.3c0.8,2.1,1.6,4.5,3,7.4
		c0.7,1.5,1.4,2.9,2.2,4.2c0.4,0.7,0.9,1.4,1.3,2c0.6,0.7,1,1.2,1.5,1.6c0.6,0.5,1.1,0.7,1.6,0.8c0.5,0,0.9-0.2,1.4-0.6
		c0.5-0.5,1-1.2,1.3-1.8c0.4-0.7,0.7-1.5,1.1-2.4c0.3-0.8,0.6-1.7,0.9-2.7l0.5-1.5c0.2-0.5,0.4-1,0.6-1.5c0.2-0.6,0.5-1.1,0.7-1.6
		c0,0,0,0,0,0c0,0,0,0,0,0c0,0,0,0,0,0l0,0c0.2-0.5,0.6-1,1-1.5c0.2-0.3,0.5-0.5,0.8-0.7c0.3-0.3,0.7-0.4,1.1-0.5
		c0.4-0.1,0.8-0.1,1.2,0c0.3,0.1,0.7,0.3,1,0.5c0.6,0.5,1,1,1.3,1.4c0.3,0.4,0.6,0.9,0.9,1.5c0.6,1.1,1,2.1,1.4,3
		c0.1,0.1,0.1,0.3,0.2,0.4c0.6,1.4,1.1,2.8,1.6,4.2l0.5,1.3c0.7,1.8,1.4,3.8,2.3,5.5c0.2,0.5,0.5,0.8,0.6,1.1c1.1,1.7,1.8,0.2,2-0.2
		c0.2-0.3,0.4-0.7,0.6-1.2c0.3-0.8,0.7-1.6,1-2.7c0.6-1.7,1.1-3.7,1.6-5.7c0.5-1.9,0.9-3.8,1.3-5.7l0.1-0.4c0.2-0.8,0.4-1.6,0.5-2.4
		l0.5-2.3l0-0.2c0.1-0.4,0.5-0.7,0.9-0.7c0.5,0,0.9,0.4,0.9,0.9c0,0,0,0,0,0L57,26.3z"/>
        </g>
    </symbol>
    <symbol id="step_5" viewBox="0 0 74 74">
        <g>
            <path class="st1" d="M51.5,34l-0.6,0v9.4h0.6c0.9,0,1.6-0.7,1.6-1.6v-6.3C53,34.7,52.3,34,51.5,34z M21,35.6v6.1
				c0,0.9,0.7,1.7,1.6,1.7h0.6V34l-0.6,0C21.7,34,21,34.7,21,35.6z M49.4,35.3c0-0.7-0.1-1.4-0.2-2.1c0-0.2-0.1-0.5-0.2-0.7v-1.8
				c0-6.8-5.4-12.3-12-12.3S25,24,25,30.8v1.2c-0.1,0.2-0.1,0.3-0.2,0.5c-0.2,0.9-0.4,1.9-0.4,2.8v11.6c0,0.5,0.4,0.8,0.8,0.8h2.5
				c0.8,4.4,4.7,7.8,9.3,7.8c3.6,0,6.8-2.1,8.4-5.2c2.7-0.2,4.9-2.5,4.9-5.3h-0.9V35.3z M43.9,47.9h-5.9c-0.7,0-1.2,0.6-1.2,1.2
				c0,0.7,0.5,1.2,1.2,1.2h4.6C41.3,52,39.3,53,37.1,53c-3.9,0-7-3.2-7-7.2V38c0.9-0.6,2.5-1.7,3.6-3.2c1.7,1.4,5.1,3.5,10.5,3.7
				v7.3h0C44.1,46.5,44,47.2,43.9,47.9z M38.8,24.4h-3.6c-2.7,0-5.2,1-7,2.7C29.5,23.5,33,21,37,21c4.1,0,7.7,2.7,9,6.4
				C44.2,25.6,41.6,24.4,38.8,24.4z M34.6,40.3h-1.9c-0.7,0-1.2,0.6-1.2,1.2c0,0.7,0.5,1.2,1.2,1.2h1.9c0.7,0,1.2-0.6,1.2-1.2
				C35.8,40.9,35.2,40.3,34.6,40.3z M41.4,40.3h-1.9c-0.7,0-1.2,0.6-1.2,1.2c0,0.7,0.5,1.2,1.2,1.2h1.9c0.7,0,1.2-0.6,1.2-1.2
				C42.6,40.9,42,40.3,41.4,40.3z"/>
        </g>
    </symbol>
    <symbol id="step_6" viewBox="0 0 74 74">
        <g>
            <path class="st1" d="M41.6,49h-3.4v-3h-2.4v3h-3.4c-0.7,0-1.2,0.6-1.2,1.2c0,0.7,0.5,1.2,1.2,1.2h9.2c0.7,0,1.2-0.6,1.2-1.2
				C42.8,49.6,42.3,49,41.6,49z M21,42v1.5c0,0.5,0.4,1,1,1H52c0.5,0,1-0.4,1-1V42H21z M37,26.7c2.6,0,5,0.7,7.1,2l0.8-1.1
				c0.3-0.4,0.8-0.4,1.1-0.2c0.4,0.3,0.4,0.8,0.2,1.1l-0.8,1.1c3.2,2.5,5.2,6.3,5.3,10.7H53V23.5c0-0.5-0.4-1-1-1H22
				c-0.5,0-1,0.4-1,1v16.9h2.3C23.4,32.8,29.5,26.7,37,26.7z M44,39.8c-0.1-0.1-0.1-0.2-0.1-0.3c-0.3-1.8-1.2-3.3-2.5-4.3L39,38.5
				c0.4,0.3,0.7,0.8,0.9,1.3H44z M37,37.8c0.2,0,0.3,0,0.5,0l2.6-3.5c-0.9-0.5-2-0.7-3.1-0.7c-2,0-3.8,0.8-5.1,2.2c0,0,0,0,0,0
				c0,0.1-0.1,0.1-0.1,0.2c-0.8,1-1.4,2.2-1.6,3.5c0,0.1-0.1,0.2-0.1,0.3h4.1C34.5,38.6,35.7,37.8,37,37.8z M49.1,39.8
				c-0.2-3.6-2-6.7-4.6-8.8l-2.1,2.9c0.1,0.1,0.1,0.1,0.2,0.2c1.5,1.3,2.6,3.2,2.9,5.2c0,0.2,0,0.4-0.1,0.6H49.1z M27.2,33.4
				C27.2,33.4,27.2,33.4,27.2,33.4c-1.3,1.8-2.2,4-2.3,6.4h3.7c-0.1-0.2-0.2-0.4-0.1-0.6c0.2-1.3,0.8-2.6,1.6-3.7L27.2,33.4z
				 M31.4,34c1.4-1.2,3-1.9,4.8-2v-3.6c-3.1,0.2-5.9,1.6-7.9,3.7l2.9,2.1C31.2,34.2,31.3,34.1,31.4,34z M43.1,30.1
				c-1.6-0.9-3.4-1.5-5.3-1.6V32c1.1,0.1,2.2,0.4,3.2,1L43.1,30.1z"/>
        </g>
    </symbol>
    <symbol id="sn" viewBox="0 0 40 40">
        <path class="st0" d="M20,0C9,0,0,9,0,20c0,11,9,20,20,20s20-9,20-20C40,9,31,0,20,0z M17.8,20c0,0.4-0.1,0.8-0.2,1.2l5.6,2.7
	c0.6-0.7,1.6-1.1,2.6-1.1c1.9,0,3.5,1.6,3.5,3.5c0,1.9-1.6,3.5-3.5,3.5c-1.9,0-3.5-1.6-3.5-3.5c0-0.2,0-0.4,0-0.5l-5.9-2.9
	c-0.6,0.4-1.3,0.7-2.1,0.7c-1.9,0-3.5-1.6-3.5-3.5c0-1.9,1.6-3.5,3.5-3.5c0.8,0,1.5,0.3,2.1,0.7l5.9-2.9c0-0.2,0-0.4,0-0.5
	c0-1.9,1.6-3.5,3.5-3.5c1.9,0,3.5,1.6,3.5,3.5c0,1.9-1.6,3.5-3.5,3.5c-1,0-1.9-0.4-2.6-1.1l-5.6,2.7C17.7,19.2,17.8,19.6,17.8,20z"
        />
    </symbol>
    <symbol id="msn" viewBox="0 0 40 40">
        <g>
            <path class="st0" d="M20.3,0C9.5,0,0.7,8.8,0.7,19.7c0,3.4,0.9,6.8,2.6,9.8L0,39.1c-0.1,0.2,0,0.5,0.1,0.7C0.3,39.9,0.5,40,0.7,40
		c0.1,0,0.1,0,0.2,0l10.6-2.8c2.8,1.4,5.8,2.1,8.9,2.1c10.8,0,19.7-8.8,19.7-19.7C40,8.8,31.2,0,20.3,0"/>
        </g>
        <g>
            <path class="st1" d="M13.6,19.7c0,1.4-1.2,2.6-2.6,2.6c-1.4,0-2.6-1.2-2.6-2.6c0-1.4,1.2-2.6,2.6-2.6C12.4,17,13.6,18.2,13.6,19.7"
            />
            <path class="st1" d="M22.9,19.7c0,1.4-1.2,2.6-2.6,2.6c-1.4,0-2.6-1.2-2.6-2.6c0-1.4,1.2-2.6,2.6-2.6C21.8,17,22.9,18.2,22.9,19.7"
            />
            <path class="st1" d="M32.3,19.7c0,1.4-1.2,2.6-2.6,2.6c-1.4,0-2.6-1.2-2.6-2.6c0-1.4,1.2-2.6,2.6-2.6C31.2,17,32.3,18.2,32.3,19.7"
            />
        </g>
    </symbol>
    <symbol id="chatbots" viewBox="0 0 40 40">
        <g>
            <path class="st0" d="M40,20c0,11-9,20-20,20C9,40,0,31,0,20C0,9,9,0,20,0C31,0,40,9,40,20"/>
            <path class="st1" d="M30.3,17.3h-0.8v-1.1c0-1.7-1.4-3.1-3.2-3.1h-5.2v-2.6c0.7-0.4,1.1-1.1,1.1-2c0-1.3-1-2.3-2.3-2.3
		c-1.3,0-2.3,1-2.3,2.3c0,0.8,0.5,1.6,1.1,2V13h-5.2c-1.7,0-3.1,1.4-3.1,3.1v1.1H9.7c-1,0-1.8,0.8-1.8,1.8v3.8c0,1,0.8,1.8,1.8,1.8
		h0.8v1.1c0,1.7,1.4,3.1,3.1,3.1h1.5v1.7c0,1,0.8,1.8,1.8,1.8h6.1c1,0,1.8-0.8,1.8-1.8v-1.7h1.5c1.7,0,3.2-1.4,3.2-3.1v-1.1h0.8
		c1,0,1.8-0.8,1.8-1.8v-3.8C32,18.1,31.2,17.3,30.3,17.3 M13.1,18.5c0-1.2,0.9-2.1,2.1-2.1c1.2,0,2.1,0.9,2.1,2.1
		c0,1.2-0.9,2.1-2.1,2.1C14,20.6,13.1,19.6,13.1,18.5 M22.8,26.1h-5.7c-0.9,0-1.7-0.8-1.7-1.7c0-0.9,0.8-1.7,1.7-1.7h5.7
		c0.9,0,1.7,0.8,1.7,1.7C24.6,25.3,23.8,26.1,22.8,26.1 M24.8,20.6c-1.2,0-2.1-0.9-2.1-2.1c0-1.2,0.9-2.1,2.1-2.1
		c1.2,0,2.1,0.9,2.1,2.1C26.9,19.6,26,20.6,24.8,20.6"/>
        </g>
    </symbol>



</svg>